<?xml version="1.0" encoding="UTF-8"?>
<svg xmlns="http://www.w3.org/2000/svg" viewBox="0 0 128 128" width="128" height="128">
  <!-- Background circle -->
  <circle cx="64" cy="64" r="60" fill="#2d2d2d" stroke="#4a4a4a" stroke-width="2"/>
  <!-- Microphone body -->
  <rect x="50" y="28" width="28" height="44" rx="14" fill="#e0e0e0"/>
  <!-- Microphone stand arc -->
  <path d="M40 68 A24 24 0 0 0 88 68" fill="none" stroke="#e0e0e0" stroke-width="5" stroke-linecap="round"/>
  <!-- Microphone stand -->
  <line x1="64" y1="92" x2="64" y2="100" stroke="#e0e0e0" stroke-width="5" stroke-linecap="round"/>
  <!-- Microphone base -->
  <line x1="50" y1="100" x2="78" y2="100" stroke="#e0e0e0" stroke-width="5" stroke-linecap="round"/>
  <!-- Sound waves (left) -->
  <path d="M32 50 A16 16 0 0 0 32 78" fill="none" stroke="#4caf50" stroke-width="3" stroke-linecap="round" opacity="0.7"/>
  <path d="M24 42 A24 24 0 0 0 24 86" fill="none" stroke="#4caf50" stroke-width="3" stroke-linecap="round" opacity="0.4"/>
  <!-- Sound waves (right) -->
  <path d="M96 50 A16 16 0 0 1 96 78" fill="none" stroke="#4caf50" stroke-width="3" stroke-linecap="round" opacity="0.7"/>
  <path d="M104 42 A24 24 0 0 1 104 86" fill="none" stroke="#4caf50" stroke-width="3" stroke-linecap="round" opacity="0.4"/>
</svg>
